<?xml version="1.0" encoding="utf-8" standalone="no"?>
<!DOCTYPE svg PUBLIC "-//W3C//DTD SVG 1.1//EN"
  "http://www.w3.org/Graphics/SVG/1.1/DTD/svg11.dtd">
<!-- Created with matplotlib (http://matplotlib.org/) -->
<svg height="144pt" version="1.1" viewBox="0 0 735 144" width="735pt" xmlns="http://www.w3.org/2000/svg" xmlns:xlink="http://www.w3.org/1999/xlink">
 <defs>
  <style type="text/css">
*{stroke-linecap:butt;stroke-linejoin:round;}
  </style>
 </defs>
 <g id="figure_1">
  <g id="patch_1">
   <path d="M 0 144.185662 
L 735.326563 144.185662 
L 735.326563 -0 
L 0 -0 
z
" style="fill:none;"/>
  </g>
  <g id="axes_1">
   <g id="patch_2">
    <path d="M 48.982813 106.629412 
L 718.582813 106.629412 
L 718.582813 10.7 
L 48.982813 10.7 
z
" style="fill:none;"/>
   </g>
   <g id="PolyCollection_1">
    <defs>
     <path d="M 48.982813 -124.628519 
L 48.982813 -108.286495 
L 50.656813 -66.918023 
L 52.330813 -74.19948 
L 54.004812 -82.29882 
L 55.678812 -88.526538 
L 57.352812 -90.55092 
L 59.026813 -91.220598 
L 60.700813 -90.769569 
L 62.374813 -90.026133 
L 64.048812 -89.456048 
L 65.722813 -89.197636 
L 67.396813 -89.17741 
L 69.070813 -89.255984 
L 70.744812 -89.314752 
L 72.418813 -89.290726 
L 74.092813 -89.178968 
L 75.766813 -89.013657 
L 77.440813 -88.840881 
L 79.114812 -88.696412 
L 80.788813 -88.596186 
L 82.462813 -88.538827 
L 84.136813 -88.513859 
L 85.810812 -88.509306 
L 87.484813 -88.515911 
L 89.158813 -88.528055 
L 90.832813 -88.54291 
L 92.506812 -88.559182 
L 94.180813 -88.576253 
L 95.854813 -88.593746 
L 97.528813 -88.611449 
L 99.202813 -88.629345 
L 100.876812 -88.647614 
L 102.550813 -88.66663 
L 104.224813 -88.686856 
L 105.898813 -88.708816 
L 107.572812 -88.732933 
L 109.246813 -88.759597 
L 110.920813 -88.789042 
L 112.594813 -88.821413 
L 114.268812 -88.856724 
L 115.942813 -88.894904 
L 117.616813 -88.935782 
L 119.290813 -88.979151 
L 120.964813 -89.02475 
L 122.638813 -89.072281 
L 124.312813 -89.121433 
L 125.986813 -89.171895 
L 127.660813 -89.223337 
L 129.334812 -89.275478 
L 131.008813 -89.328003 
L 132.682813 -89.380704 
L 134.356813 -89.433342 
L 136.030812 -89.485726 
L 137.704813 -89.537706 
L 139.378813 -89.589139 
L 141.052813 -89.639912 
L 142.726813 -89.689908 
L 144.400813 -89.739017 
L 146.074813 -89.787108 
L 147.748813 -89.834053 
L 149.422813 -89.879672 
L 151.096812 -89.92378 
L 152.770813 -89.966158 
L 154.444813 -90.006547 
L 156.118813 -90.044678 
L 157.792813 -90.080262 
L 159.466813 -90.112989 
L 161.140813 -90.142556 
L 162.814813 -90.168656 
L 164.488813 -90.190989 
L 166.162813 -90.209275 
L 167.836813 -90.223268 
L 169.510813 -90.232737 
L 171.184813 -90.237502 
L 172.858812 -90.237422 
L 174.532813 -90.23241 
L 176.206813 -90.222414 
L 177.880813 -90.207479 
L 179.554812 -90.187672 
L 181.228813 -90.16315 
L 182.902813 -90.134124 
L 184.576813 -90.100867 
L 186.250812 -90.063706 
L 187.924813 -90.023015 
L 189.598813 -89.979205 
L 191.272813 -89.932712 
L 192.946813 -89.883986 
L 194.620812 -89.833478 
L 196.294813 -89.781616 
L 197.968813 -89.728818 
L 199.642813 -89.675476 
L 201.316812 -89.621944 
L 202.990813 -89.568537 
L 204.664813 -89.515531 
L 206.338813 -89.463189 
L 208.012812 -89.41173 
L 209.686813 -89.361348 
L 211.360813 -89.312223 
L 213.034813 -89.264505 
L 214.708813 -89.218348 
L 216.382812 -89.173861 
L 218.056813 -89.131178 
L 219.730813 -89.090395 
L 221.404813 -89.051615 
L 223.078812 -89.014922 
L 224.752813 -88.980407 
L 226.426813 -88.948139 
L 228.100813 -88.918188 
L 229.774813 -88.89061 
L 231.448813 -88.865458 
L 233.122813 -88.842781 
L 234.796813 -88.822618 
L 236.470813 -88.804992 
L 238.144813 -88.789933 
L 239.818813 -88.777452 
L 241.492813 -88.767554 
L 243.166813 -88.760235 
L 244.840812 -88.755487 
L 246.514813 -88.753286 
L 248.188813 -88.753613 
L 249.862813 -88.756421 
L 251.536813 -88.761666 
L 253.210813 -88.769293 
L 254.884813 -88.779237 
L 256.558813 -88.791422 
L 258.232813 -88.794422 
L 259.906813 -88.643855 
L 261.580813 -88.284007 
L 263.254813 -87.968026 
L 264.928813 -87.983016 
L 266.602813 -88.250222 
L 268.276813 -88.647861 
L 269.950813 -89.285852 
L 271.624813 -90.019925 
L 273.298813 -90.538893 
L 274.972813 -90.745535 
L 276.646813 -90.719167 
L 278.320813 -90.584415 
L 279.994813 -90.290146 
L 281.668813 -89.736985 
L 283.342813 -88.159563 
L 285.016813 -84.019704 
L 286.690813 -80.234773 
L 288.364813 -79.727807 
L 290.038813 -107.530486 
L 291.712813 -66.881255 
L 293.386813 -77.682159 
L 295.060813 -85.536913 
L 296.734813 -87.760307 
L 298.408813 -84.943533 
L 300.082813 -107.334684 
L 301.756813 -67.312271 
L 303.430813 -77.716392 
L 305.104813 -85.295569 
L 306.778813 -84.748265 
L 308.452813 -107.939679 
L 310.126813 -66.724589 
L 311.800813 -78.342011 
L 313.474813 -85.019716 
L 315.148813 -86.063059 
L 316.822813 -86.755596 
L 318.496813 -87.807722 
L 320.170813 -88.437937 
L 321.844813 -98.192115 
L 323.518813 -90.168811 
L 325.192813 -85.540775 
L 326.866813 -81.597379 
L 328.540813 -78.095857 
L 330.214813 -74.731526 
L 331.888813 -71.377895 
L 333.562813 -67.755541 
L 335.236813 -63.474207 
L 336.910813 -58.605359 
L 338.584813 -53.677218 
L 340.258813 -49.053125 
L 341.932813 -45.331597 
L 343.606813 -42.787535 
L 345.280813 -41.831177 
L 346.954813 -42.312302 
L 348.628813 -44.153423 
L 350.302813 -47.141209 
L 351.976813 -50.571041 
L 353.650813 -54.32021 
L 355.324813 -57.817284 
L 356.998813 -61.174269 
L 358.672813 -64.813438 
L 360.346813 -68.795711 
L 362.020813 -73.00694 
L 363.694813 -77.029091 
L 365.368813 -80.6294 
L 367.042813 -84.067396 
L 368.716813 -87.485068 
L 370.390813 -90.281248 
L 372.064813 -90.088866 
L 373.738813 -83.012669 
L 375.412813 -80.652788 
L 377.086813 -81.900825 
L 378.760813 -83.213483 
L 380.434813 -84.04527 
L 382.108813 -85.058691 
L 383.782813 -86.337703 
L 385.456813 -87.579164 
L 387.130813 -88.55438 
L 388.804813 -89.287875 
L 390.478813 -90.004064 
L 392.152813 -90.652979 
L 393.826813 -89.679853 
L 395.500813 -84.032341 
L 397.174813 -80.141074 
L 398.848813 -79.098653 
L 400.522813 -77.736561 
L 402.196813 -108.093965 
L 403.870813 -60.278475 
L 405.544813 -77.129975 
L 407.218813 -75.277815 
L 408.892813 -108.930768 
L 410.566813 -65.403165 
L 412.240813 -77.954991 
L 413.914813 -75.526631 
L 415.588813 -108.991227 
L 417.262813 -65.251713 
L 418.936813 -78.618158 
L 420.610813 -77.954687 
L 422.284813 -108.350637 
L 423.958813 -67.831531 
L 425.632813 -79.85878 
L 427.306813 -86.183652 
L 428.980813 -85.018227 
L 430.654813 -107.823169 
L 432.328813 -69.053342 
L 434.002813 -79.092006 
L 435.676813 -85.786669 
L 437.350813 -85.512655 
L 439.024813 -107.447594 
L 440.698813 -68.753995 
L 442.372813 -77.648753 
L 444.046813 -84.802078 
L 445.720813 -88.237827 
L 447.394813 -88.763494 
L 449.068813 -100.306889 
L 450.742813 -83.097351 
L 452.416813 -80.213719 
L 454.090813 -78.286713 
L 455.764813 -76.313592 
L 457.438813 -73.565975 
L 459.112813 -70.833244 
L 460.786813 -68.989036 
L 462.460813 -68.227377 
L 464.134813 -68.578177 
L 465.808813 -69.419805 
L 467.482813 -70.473006 
L 469.156813 -71.820699 
L 470.830813 -73.307215 
L 472.504813 -74.936616 
L 474.178813 -76.569693 
L 475.852813 -78.026999 
L 477.526813 -79.410734 
L 479.200813 -80.804507 
L 480.874813 -81.937484 
L 482.548813 -82.735934 
L 484.222813 -83.078995 
L 485.896813 -83.17998 
L 487.570813 -83.346738 
L 489.244813 -83.967955 
L 490.918813 -84.958735 
L 492.592813 -86.42057 
L 494.266813 -87.990566 
L 495.940813 -89.550586 
L 497.614813 -90.848577 
L 499.288813 -91.124358 
L 500.962813 -89.262542 
L 502.636813 -86.336907 
L 504.310813 -85.655129 
L 505.984813 -86.366947 
L 507.658813 -87.170019 
L 509.332813 -87.370717 
L 511.006813 -86.93331 
L 512.680813 -86.479677 
L 514.354813 -86.590407 
L 516.028813 -87.346675 
L 517.702813 -88.25328 
L 519.376813 -88.562275 
L 521.050813 -87.800831 
L 522.724812 -85.949884 
L 524.398813 -83.743716 
L 526.072813 -81.830481 
L 527.746813 -80.624345 
L 529.420813 -79.664148 
L 531.094812 -78.53229 
L 532.768813 -77.041891 
L 534.442813 -75.408955 
L 536.116813 -74.198005 
L 537.790813 -74.165014 
L 539.464812 -75.664108 
L 541.138813 -78.809968 
L 542.812813 -83.150928 
L 544.486813 -87.855357 
L 546.160813 -91.79533 
L 547.834812 -93.532216 
L 549.508813 -93.286444 
L 551.182813 -92.159304 
L 552.856813 -90.913578 
L 554.530813 -89.935724 
L 556.204813 -89.51629 
L 557.878813 -89.800696 
L 559.552813 -90.593545 
L 561.226813 -91.493575 
L 562.900813 -92.138021 
L 564.574813 -92.18575 
L 566.248813 -89.582785 
L 567.922813 -79.112192 
L 569.596813 -107.782214 
L 571.270813 -43.445448 
L 572.944813 -68.357965 
L 574.618813 -80.101785 
L 576.292813 -108.74952 
L 577.966813 -65.83329 
L 579.640813 -78.648164 
L 581.314813 -79.38897 
L 582.988813 -108.195238 
L 584.662813 -67.246712 
L 586.336813 -79.42043 
L 588.010813 -85.094942 
L 589.684813 -84.66778 
L 591.358813 -107.598315 
L 593.032813 -70.765938 
L 594.706813 -78.663386 
L 596.380813 -85.296265 
L 598.054813 -89.358245 
L 599.728813 -91.037568 
L 601.402813 -91.008973 
L 603.076813 -90.47563 
L 604.750813 -89.790413 
L 606.424813 -89.045689 
L 608.098813 -88.259746 
L 609.772813 -87.427189 
L 611.446813 -86.513979 
L 613.120813 -85.526323 
L 614.794813 -84.457459 
L 616.468813 -83.285031 
L 618.142813 -82.0061 
L 619.816813 -80.655604 
L 621.490813 -79.286948 
L 623.164813 -77.943234 
L 624.838813 -76.67252 
L 626.512813 -75.525387 
L 628.186813 -74.542512 
L 629.860813 -73.754833 
L 631.534813 -73.183343 
L 633.208813 -72.8424 
L 634.882813 -72.741079 
L 636.556813 -72.883637 
L 638.230813 -73.266444 
L 639.904813 -73.87759 
L 641.578813 -74.699934 
L 643.252813 -75.709222 
L 644.926813 -76.876345 
L 646.600813 -78.170827 
L 648.274813 -79.561752 
L 649.948813 -81.017817 
L 651.622813 -82.508669 
L 653.296813 -84.00276 
L 654.970813 -85.46617 
L 656.644813 -86.863237 
L 658.318813 -88.155241 
L 659.992813 -89.300563 
L 661.666813 -90.258536 
L 663.340813 -90.996198 
L 665.014813 -91.495348 
L 666.688813 -91.756162 
L 668.362813 -91.802288 
L 670.036813 -91.681755 
L 671.710813 -91.459218 
L 673.384813 -91.204372 
L 675.058813 -90.978645 
L 676.732813 -90.822761 
L 678.406813 -90.75132 
L 680.080813 -90.757073 
L 681.754813 -90.821816 
L 683.428813 -90.926048 
L 685.102813 -91.054121 
L 686.776813 -91.195452 
L 688.450813 -91.34268 
L 690.124813 -91.489597 
L 691.798813 -91.630534 
L 693.472813 -91.760151 
L 695.146813 -91.873674 
L 696.820813 -91.968325 
L 698.494813 -92.043037 
L 700.168813 -92.097904 
L 701.842813 -92.13344 
L 703.516813 -92.150861 
L 705.190813 -92.152335 
L 706.864813 -92.138992 
L 708.538813 -92.110877 
L 710.212813 -92.067921 
L 711.886813 -92.009737 
L 713.560813 -91.935801 
L 715.234813 -91.845861 
L 716.908813 -91.740362 
L 716.908813 -101.488021 
L 716.908813 -101.488021 
L 715.234813 -101.810513 
L 713.560813 -102.158016 
L 711.886813 -102.526232 
L 710.212813 -102.911947 
L 708.538813 -103.313186 
L 706.864813 -103.729276 
L 705.190813 -104.160829 
L 703.516813 -104.609663 
L 701.842813 -105.076884 
L 700.168813 -105.562747 
L 698.494813 -106.068256 
L 696.820813 -106.592481 
L 695.146813 -107.131128 
L 693.472813 -107.67763 
L 691.798813 -108.22397 
L 690.124813 -108.760936 
L 688.450813 -109.276873 
L 686.776813 -109.759725 
L 685.102813 -110.198197 
L 683.428813 -110.581381 
L 681.754813 -110.897959 
L 680.080813 -111.13328 
L 678.406813 -111.265012 
L 676.732813 -111.263166 
L 675.058813 -111.094373 
L 673.384813 -110.730984 
L 671.710813 -110.16362 
L 670.036813 -109.406856 
L 668.362813 -108.495278 
L 666.688813 -107.472529 
L 665.014813 -106.381243 
L 663.340813 -105.255483 
L 661.666813 -104.113465 
L 659.992813 -102.958038 
L 658.318813 -101.784495 
L 656.644813 -100.584827 
L 654.970813 -99.351364 
L 653.296813 -98.079507 
L 651.622813 -96.770229 
L 649.948813 -95.431237 
L 648.274813 -94.075275 
L 646.600813 -92.719923 
L 644.926813 -91.38865 
L 643.252813 -90.108618 
L 641.578813 -88.910138 
L 639.904813 -87.825382 
L 638.230813 -86.884621 
L 636.556813 -86.113596 
L 634.882813 -85.534878 
L 633.208813 -85.163811 
L 631.534813 -85.007743 
L 629.860813 -85.067612 
L 628.186813 -85.33626 
L 626.512813 -85.79715 
L 624.838813 -86.422867 
L 623.164813 -87.180293 
L 621.490813 -88.037398 
L 619.816813 -88.982556 
L 618.142813 -90.02863 
L 616.468813 -91.187761 
L 614.794813 -92.479835 
L 613.120813 -93.936066 
L 611.446813 -95.588143 
L 609.772813 -97.455974 
L 608.098813 -99.553992 
L 606.424813 -101.900239 
L 604.750813 -104.374159 
L 603.076813 -106.731653 
L 601.402813 -108.743965 
L 599.728813 -110.29925 
L 598.054813 -112.058811 
L 596.380813 -114.291014 
L 594.706813 -117.576431 
L 593.032813 -123.653779 
L 591.358813 -123.555694 
L 589.684813 -120.601517 
L 588.010813 -120.172534 
L 586.336813 -120.400615 
L 584.662813 -124.541292 
L 582.988813 -124.161419 
L 581.314813 -122.019457 
L 579.640813 -121.437816 
L 577.966813 -124.762861 
L 576.292813 -123.290124 
L 574.618813 -121.351445 
L 572.944813 -120.830125 
L 571.270813 -127.329727 
L 569.596813 -123.704571 
L 567.922813 -120.415896 
L 566.248813 -115.29597 
L 564.574813 -109.092164 
L 562.900813 -105.108651 
L 561.226813 -102.411502 
L 559.552813 -100.397172 
L 557.878813 -99.339299 
L 556.204813 -99.668152 
L 554.530813 -101.447152 
L 552.856813 -104.016343 
L 551.182813 -106.113359 
L 549.508813 -106.201192 
L 547.834812 -103.630273 
L 546.160813 -99.406015 
L 544.486813 -94.5888 
L 542.812813 -89.986244 
L 541.138813 -85.989388 
L 539.464812 -83.217124 
L 537.790813 -82.069894 
L 536.116813 -82.414918 
L 534.442813 -83.887924 
L 532.768813 -85.72787 
L 531.094812 -87.37429 
L 529.420813 -88.641196 
L 527.746813 -89.817105 
L 526.072813 -91.57489 
L 524.398813 -94.844047 
L 522.724812 -99.713651 
L 521.050813 -105.573399 
L 519.376813 -110.913539 
L 517.702813 -114.642951 
L 516.028813 -116.686111 
L 514.354813 -117.70044 
L 512.680813 -117.95734 
L 511.006813 -117.717508 
L 509.332813 -117.199075 
L 507.658813 -116.884353 
L 505.984813 -117.15716 
L 504.310813 -117.72236 
L 502.636813 -117.85571 
L 500.962813 -115.819201 
L 499.288813 -111.939056 
L 497.614813 -107.958845 
L 495.940813 -104.904145 
L 494.266813 -102.519231 
L 492.592813 -100.546645 
L 490.918813 -98.907941 
L 489.244813 -97.887928 
L 487.570813 -97.330653 
L 485.896813 -97.296285 
L 484.222813 -97.360856 
L 482.548813 -97.192429 
L 480.874813 -96.569456 
L 479.200813 -95.619705 
L 477.526813 -94.416635 
L 475.852813 -93.2248 
L 474.178813 -91.945345 
L 472.504813 -90.460215 
L 470.830813 -88.930611 
L 469.156813 -87.476662 
L 467.482813 -86.082199 
L 465.808813 -84.900856 
L 464.134813 -83.851107 
L 462.460813 -83.212549 
L 460.786813 -83.645068 
L 459.112813 -85.35202 
L 457.438813 -88.812177 
L 455.764813 -94.218965 
L 454.090813 -101.42907 
L 452.416813 -109.869375 
L 450.742813 -118.224212 
L 449.068813 -119.731325 
L 447.394813 -114.031755 
L 445.720813 -114.837582 
L 444.046813 -115.517864 
L 442.372813 -117.783033 
L 440.698813 -123.633993 
L 439.024813 -123.540183 
L 437.350813 -119.658635 
L 435.676813 -118.474346 
L 434.002813 -119.149636 
L 432.328813 -124.048774 
L 430.654813 -123.687093 
L 428.980813 -120.663164 
L 427.306813 -119.864086 
L 425.632813 -120.327851 
L 423.958813 -124.546272 
L 422.284813 -123.796461 
L 420.610813 -122.678796 
L 418.936813 -121.957021 
L 417.262813 -125.108856 
L 415.588813 -123.496481 
L 413.914813 -123.255525 
L 412.240813 -122.211238 
L 410.566813 -125.031774 
L 408.892813 -123.384002 
L 407.218813 -123.19271 
L 405.544813 -121.917396 
L 403.870813 -125.54887 
L 402.196813 -124.303507 
L 400.522813 -121.658691 
L 398.848813 -120.913678 
L 397.174813 -120.444172 
L 395.500813 -119.344795 
L 393.826813 -115.73603 
L 392.152813 -112.486501 
L 390.478813 -111.859753 
L 388.804813 -113.13823 
L 387.130813 -115.110235 
L 385.456813 -116.907106 
L 383.782813 -118.146624 
L 382.108813 -118.965913 
L 380.434813 -119.400614 
L 378.760813 -119.462069 
L 377.086813 -119.55389 
L 375.412813 -119.878254 
L 373.738813 -119.398765 
L 372.064813 -114.310394 
L 370.390813 -107.676448 
L 368.716813 -102.77898 
L 367.042813 -98.750724 
L 365.368813 -95.062541 
L 363.694813 -91.271603 
L 362.020813 -87.043505 
L 360.346813 -82.594399 
L 358.672813 -78.34427 
L 356.998813 -74.417261 
L 355.324813 -70.765346 
L 353.650813 -66.980185 
L 351.976813 -62.963908 
L 350.302813 -59.301259 
L 348.628813 -56.125856 
L 346.954813 -54.148456 
L 345.280813 -53.581484 
L 343.606813 -54.493664 
L 341.932813 -57.02054 
L 340.258813 -60.735723 
L 338.584813 -65.350861 
L 336.910813 -70.259067 
L 335.236813 -75.097029 
L 333.562813 -79.364387 
L 331.888813 -83.101503 
L 330.214813 -86.972165 
L 328.540813 -91.687934 
L 326.866813 -97.842742 
L 325.192813 -105.340382 
L 323.518813 -112.823918 
L 321.844813 -117.448393 
L 320.170813 -113.707033 
L 318.496813 -116.580623 
L 316.822813 -118.520224 
L 315.148813 -119.427493 
L 313.474813 -119.111178 
L 311.800813 -119.712819 
L 310.126813 -124.32065 
L 308.452813 -123.646819 
L 306.778813 -119.781151 
L 305.104813 -117.790019 
L 303.430813 -118.502773 
L 301.756813 -123.885517 
L 300.082813 -123.523744 
L 298.408813 -119.602589 
L 296.734813 -118.132563 
L 295.060813 -117.170621 
L 293.386813 -118.658559 
L 291.712813 -124.069194 
L 290.038813 -123.810686 
L 288.364813 -120.288957 
L 286.690813 -120.025709 
L 285.016813 -118.619211 
L 283.342813 -115.617996 
L 281.668813 -112.71263 
L 279.994813 -110.825667 
L 278.320813 -109.534609 
L 276.646813 -108.462397 
L 274.972813 -107.628014 
L 273.298813 -106.954141 
L 271.624813 -106.674601 
L 269.950813 -107.194509 
L 268.276813 -108.820308 
L 266.602813 -111.194844 
L 264.928813 -113.348162 
L 263.254813 -114.567679 
L 261.580813 -114.522797 
L 259.906813 -113.911321 
L 258.232813 -113.365611 
L 256.558813 -113.149895 
L 254.884813 -113.20539 
L 253.210813 -113.255735 
L 251.536813 -113.300757 
L 249.862813 -113.340318 
L 248.188813 -113.374292 
L 246.514813 -113.402572 
L 244.840812 -113.425053 
L 243.166813 -113.441663 
L 241.492813 -113.452336 
L 239.818813 -113.457006 
L 238.144813 -113.455625 
L 236.470813 -113.448155 
L 234.796813 -113.434561 
L 233.122813 -113.414817 
L 231.448813 -113.388898 
L 229.774813 -113.356787 
L 228.100813 -113.318474 
L 226.426813 -113.273948 
L 224.752813 -113.223194 
L 223.078812 -113.166204 
L 221.404813 -113.102965 
L 219.730813 -113.033469 
L 218.056813 -112.957708 
L 216.382812 -112.875669 
L 214.708813 -112.787341 
L 213.034813 -112.69272 
L 211.360813 -112.591801 
L 209.686813 -112.48459 
L 208.012812 -112.371114 
L 206.338813 -112.25141 
L 204.664813 -112.125557 
L 202.990813 -111.99366 
L 201.316812 -111.855894 
L 199.642813 -111.712483 
L 197.968813 -111.56374 
L 196.294813 -111.410061 
L 194.620812 -111.251965 
L 192.946813 -111.090077 
L 191.272813 -110.925133 
L 189.598813 -110.758028 
L 187.924813 -110.589749 
L 186.250812 -110.421422 
L 184.576813 -110.254264 
L 182.902813 -110.089599 
L 181.228813 -109.928806 
L 179.554812 -109.773319 
L 177.880813 -109.624594 
L 176.206813 -109.484109 
L 174.532813 -109.353275 
L 172.858812 -109.233501 
L 171.184813 -109.126103 
L 169.510813 -109.0323 
L 167.836813 -108.953224 
L 166.162813 -108.889848 
L 164.488813 -108.843014 
L 162.814813 -108.813409 
L 161.140813 -108.801556 
L 159.466813 -108.807761 
L 157.792813 -108.832205 
L 156.118813 -108.874849 
L 154.444813 -108.935474 
L 152.770813 -109.013696 
L 151.096812 -109.108954 
L 149.422813 -109.22053 
L 147.748813 -109.347531 
L 146.074813 -109.488941 
L 144.400813 -109.643588 
L 142.726813 -109.810217 
L 141.052813 -109.987424 
L 139.378813 -110.173738 
L 137.704813 -110.367617 
L 136.030812 -110.567462 
L 134.356813 -110.771621 
L 132.682813 -110.978473 
L 131.008813 -111.186407 
L 129.334812 -111.393834 
L 127.660813 -111.59929 
L 125.986813 -111.801391 
L 124.312813 -111.998896 
L 122.638813 -112.190689 
L 120.964813 -112.375846 
L 119.290813 -112.553613 
L 117.616813 -112.72341 
L 115.942813 -112.884842 
L 114.268812 -113.037689 
L 112.594813 -113.181884 
L 110.920813 -113.317521 
L 109.246813 -113.444803 
L 107.572812 -113.564067 
L 105.898813 -113.675711 
L 104.224813 -113.780206 
L 102.550813 -113.878003 
L 100.876812 -113.969543 
L 99.202813 -114.055128 
L 97.528813 -114.134862 
L 95.854813 -114.208565 
L 94.180813 -114.275699 
L 92.506812 -114.335372 
L 90.832813 -114.386418 
L 89.158813 -114.427567 
L 87.484813 -114.457534 
L 85.810812 -114.474864 
L 84.136813 -114.477212 
L 82.462813 -114.460109 
L 80.788813 -114.415763 
L 79.114812 -114.333362 
L 77.440813 -114.202657 
L 75.766813 -114.0216 
L 74.092813 -113.805536 
L 72.418813 -113.5913 
L 70.744812 -113.429188 
L 69.070813 -113.361482 
L 67.396813 -113.394466 
L 65.722813 -113.473083 
L 64.048812 -113.467818 
L 62.374813 -113.196263 
L 60.700813 -112.528029 
L 59.026813 -111.593864 
L 57.352812 -111.029539 
L 55.678812 -111.424886 
L 54.004812 -111.331779 
L 52.330813 -115.041054 
L 50.656813 -122.672777 
L 48.982813 -124.628519 
z
" id="m69c4b732fc"/>
    </defs>
    <g clip-path="url(#pdf708b6be8)">
     <use style="fill:#44525c;fill-opacity:0.1;" x="0" xlink:href="#m69c4b732fc" y="144.185662"/>
    </g>
   </g>
   <g id="matplotlib.axis_1">
    <g id="xtick_1">
     <g id="line2d_1">
      <defs>
       <path d="M 0 0 
L 0 3.5 
" id="md281c276ee" style="stroke:#000000;stroke-width:0.8;"/>
      </defs>
      <g>
       <use style="stroke:#000000;stroke-width:0.8;" x="48.982813" xlink:href="#md281c276ee" y="106.629412"/>
      </g>
     </g>
     <g id="text_1">
      <!-- 0 -->
      <defs>
       <path d="M 31.78125 66.40625 
Q 24.171875 66.40625 20.328125 58.90625 
Q 16.5 51.421875 16.5 36.375 
Q 16.5 21.390625 20.328125 13.890625 
Q 24.171875 6.390625 31.78125 6.390625 
Q 39.453125 6.390625 43.28125 13.890625 
Q 47.125 21.390625 47.125 36.375 
Q 47.125 51.421875 43.28125 58.90625 
Q 39.453125 66.40625 31.78125 66.40625 
M 31.78125 74.21875 
Q 44.046875 74.21875 50.515625 64.515625 
Q 56.984375 54.828125 56.984375 36.375 
Q 56.984375 17.96875 50.515625 8.265625 
Q 44.046875 -1.421875 31.78125 -1.421875 
Q 19.53125 -1.421875 13.0625 8.265625 
Q 6.59375 17.96875 6.59375 36.375 
Q 6.59375 54.828125 13.0625 64.515625 
Q 19.53125 74.21875 31.78125 74.21875 
" id="DejaVuSans-30"/>
      </defs>
      <g transform="translate(45.801563 121.227849)scale(0.1 -0.1)">
       <use xlink:href="#DejaVuSans-30"/>
      </g>
     </g>
    </g>
    <g id="xtick_2">
     <g id="line2d_2">
      <g>
       <use style="stroke:#000000;stroke-width:0.8;" x="132.682813" xlink:href="#md281c276ee" y="106.629412"/>
      </g>
     </g>
     <g id="text_2">
      <!-- 50 -->
      <defs>
       <path d="M 10.796875 72.90625 
L 49.515625 72.90625 
L 49.515625 64.59375 
L 19.828125 64.59375 
L 19.828125 46.734375 
Q 21.96875 47.46875 24.109375 47.828125 
Q 26.265625 48.1875 28.421875 48.1875 
Q 40.625 48.1875 47.75 41.5 
Q 54.890625 34.8125 54.890625 23.390625 
Q 54.890625 11.625 47.5625 5.09375 
Q 40.234375 -1.421875 26.90625 -1.421875 
Q 22.3125 -1.421875 17.546875 -0.640625 
Q 12.796875 0.140625 7.71875 1.703125 
L 7.71875 11.625 
Q 12.109375 9.234375 16.796875 8.0625 
Q 21.484375 6.890625 26.703125 6.890625 
Q 35.15625 6.890625 40.078125 11.328125 
Q 45.015625 15.765625 45.015625 23.390625 
Q 45.015625 31 40.078125 35.4375 
Q 35.15625 39.890625 26.703125 39.890625 
Q 22.75 39.890625 18.8125 39.015625 
Q 14.890625 38.140625 10.796875 36.28125 
z
" id="DejaVuSans-35"/>
      </defs>
      <g transform="translate(126.320313 121.227849)scale(0.1 -0.1)">
       <use xlink:href="#DejaVuSans-35"/>
       <use x="63.623047" xlink:href="#DejaVuSans-30"/>
      </g>
     </g>
    </g>
    <g id="xtick_3">
     <g id="line2d_3">
      <g>
       <use style="stroke:#000000;stroke-width:0.8;" x="216.382812" xlink:href="#md281c276ee" y="106.629412"/>
      </g>
     </g>
     <g id="text_3">
      <!-- 100 -->
      <defs>
       <path d="M 12.40625 8.296875 
L 28.515625 8.296875 
L 28.515625 63.921875 
L 10.984375 60.40625 
L 10.984375 69.390625 
L 28.421875 72.90625 
L 38.28125 72.90625 
L 38.28125 8.296875 
L 54.390625 8.296875 
L 54.390625 0 
L 12.40625 0 
z
" id="DejaVuSans-31"/>
      </defs>
      <g transform="translate(206.839063 121.227849)scale(0.1 -0.1)">
       <use xlink:href="#DejaVuSans-31"/>
       <use x="63.623047" xlink:href="#DejaVuSans-30"/>
       <use x="127.246094" xlink:href="#DejaVuSans-30"/>
      </g>
     </g>
    </g>
    <g id="xtick_4">
     <g id="line2d_4">
      <g>
       <use style="stroke:#000000;stroke-width:0.8;" x="300.082813" xlink:href="#md281c276ee" y="106.629412"/>
      </g>
     </g>
     <g id="text_4">
      <!-- 150 -->
      <g transform="translate(290.539063 121.227849)scale(0.1 -0.1)">
       <use xlink:href="#DejaVuSans-31"/>
       <use x="63.623047" xlink:href="#DejaVuSans-35"/>
       <use x="127.246094" xlink:href="#DejaVuSans-30"/>
      </g>
     </g>
    </g>
    <g id="xtick_5">
     <g id="line2d_5">
      <g>
       <use style="stroke:#000000;stroke-width:0.8;" x="383.782813" xlink:href="#md281c276ee" y="106.629412"/>
      </g>
     </g>
     <g id="text_5">
      <!-- 200 -->
      <defs>
       <path d="M 19.1875 8.296875 
L 53.609375 8.296875 
L 53.609375 0 
L 7.328125 0 
L 7.328125 8.296875 
Q 12.9375 14.109375 22.625 23.890625 
Q 32.328125 33.6875 34.8125 36.53125 
Q 39.546875 41.84375 41.421875 45.53125 
Q 43.3125 49.21875 43.3125 52.78125 
Q 43.3125 58.59375 39.234375 62.25 
Q 35.15625 65.921875 28.609375 65.921875 
Q 23.96875 65.921875 18.8125 64.3125 
Q 13.671875 62.703125 7.8125 59.421875 
L 7.8125 69.390625 
Q 13.765625 71.78125 18.9375 73 
Q 24.125 74.21875 28.421875 74.21875 
Q 39.75 74.21875 46.484375 68.546875 
Q 53.21875 62.890625 53.21875 53.421875 
Q 53.21875 48.921875 51.53125 44.890625 
Q 49.859375 40.875 45.40625 35.40625 
Q 44.1875 33.984375 37.640625 27.21875 
Q 31.109375 20.453125 19.1875 8.296875 
" id="DejaVuSans-32"/>
      </defs>
      <g transform="translate(374.239063 121.227849)scale(0.1 -0.1)">
       <use xlink:href="#DejaVuSans-32"/>
       <use x="63.623047" xlink:href="#DejaVuSans-30"/>
       <use x="127.246094" xlink:href="#DejaVuSans-30"/>
      </g>
     </g>
    </g>
    <g id="xtick_6">
     <g id="line2d_6">
      <g>
       <use style="stroke:#000000;stroke-width:0.8;" x="467.482813" xlink:href="#md281c276ee" y="106.629412"/>
      </g>
     </g>
     <g id="text_6">
      <!-- 250 -->
      <g transform="translate(457.939063 121.227849)scale(0.1 -0.1)">
       <use xlink:href="#DejaVuSans-32"/>
       <use x="63.623047" xlink:href="#DejaVuSans-35"/>
       <use x="127.246094" xlink:href="#DejaVuSans-30"/>
      </g>
     </g>
    </g>
    <g id="xtick_7">
     <g id="line2d_7">
      <g>
       <use style="stroke:#000000;stroke-width:0.8;" x="551.182813" xlink:href="#md281c276ee" y="106.629412"/>
      </g>
     </g>
     <g id="text_7">
      <!-- 300 -->
      <defs>
       <path d="M 40.578125 39.3125 
Q 47.65625 37.796875 51.625 33 
Q 55.609375 28.21875 55.609375 21.1875 
Q 55.609375 10.40625 48.1875 4.484375 
Q 40.765625 -1.421875 27.09375 -1.421875 
Q 22.515625 -1.421875 17.65625 -0.515625 
Q 12.796875 0.390625 7.625 2.203125 
L 7.625 11.71875 
Q 11.71875 9.328125 16.59375 8.109375 
Q 21.484375 6.890625 26.8125 6.890625 
Q 36.078125 6.890625 40.9375 10.546875 
Q 45.796875 14.203125 45.796875 21.1875 
Q 45.796875 27.640625 41.28125 31.265625 
Q 36.765625 34.90625 28.71875 34.90625 
L 20.21875 34.90625 
L 20.21875 43.015625 
L 29.109375 43.015625 
Q 36.375 43.015625 40.234375 45.921875 
Q 44.09375 48.828125 44.09375 54.296875 
Q 44.09375 59.90625 40.109375 62.90625 
Q 36.140625 65.921875 28.71875 65.921875 
Q 24.65625 65.921875 20.015625 65.03125 
Q 15.375 64.15625 9.8125 62.3125 
L 9.8125 71.09375 
Q 15.4375 72.65625 20.34375 73.4375 
Q 25.25 74.21875 29.59375 74.21875 
Q 40.828125 74.21875 47.359375 69.109375 
Q 53.90625 64.015625 53.90625 55.328125 
Q 53.90625 49.265625 50.4375 45.09375 
Q 46.96875 40.921875 40.578125 39.3125 
" id="DejaVuSans-33"/>
      </defs>
      <g transform="translate(541.639063 121.227849)scale(0.1 -0.1)">
       <use xlink:href="#DejaVuSans-33"/>
       <use x="63.623047" xlink:href="#DejaVuSans-30"/>
       <use x="127.246094" xlink:href="#DejaVuSans-30"/>
      </g>
     </g>
    </g>
    <g id="xtick_8">
     <g id="line2d_8">
      <g>
       <use style="stroke:#000000;stroke-width:0.8;" x="634.882813" xlink:href="#md281c276ee" y="106.629412"/>
      </g>
     </g>
     <g id="text_8">
      <!-- 350 -->
      <g transform="translate(625.339063 121.227849)scale(0.1 -0.1)">
       <use xlink:href="#DejaVuSans-33"/>
       <use x="63.623047" xlink:href="#DejaVuSans-35"/>
       <use x="127.246094" xlink:href="#DejaVuSans-30"/>
      </g>
     </g>
    </g>
    <g id="xtick_9">
     <g id="line2d_9">
      <g>
       <use style="stroke:#000000;stroke-width:0.8;" x="718.582813" xlink:href="#md281c276ee" y="106.629412"/>
      </g>
     </g>
     <g id="text_9">
      <!-- 400 -->
      <defs>
       <path d="M 37.796875 64.3125 
L 12.890625 25.390625 
L 37.796875 25.390625 
z
M 35.203125 72.90625 
L 47.609375 72.90625 
L 47.609375 25.390625 
L 58.015625 25.390625 
L 58.015625 17.1875 
L 47.609375 17.1875 
L 47.609375 0 
L 37.796875 0 
L 37.796875 17.1875 
L 4.890625 17.1875 
L 4.890625 26.703125 
z
" id="DejaVuSans-34"/>
      </defs>
      <g transform="translate(709.039062 121.227849)scale(0.1 -0.1)">
       <use xlink:href="#DejaVuSans-34"/>
       <use x="63.623047" xlink:href="#DejaVuSans-30"/>
       <use x="127.246094" xlink:href="#DejaVuSans-30"/>
      </g>
     </g>
    </g>
    <g id="text_10">
     <!-- Time (ms) -->
     <defs>
      <path d="M -0.296875 72.90625 
L 61.375 72.90625 
L 61.375 64.59375 
L 35.5 64.59375 
L 35.5 0 
L 25.59375 0 
L 25.59375 64.59375 
L -0.296875 64.59375 
z
" id="DejaVuSans-54"/>
      <path d="M 9.421875 54.6875 
L 18.40625 54.6875 
L 18.40625 0 
L 9.421875 0 
z
M 9.421875 75.984375 
L 18.40625 75.984375 
L 18.40625 64.59375 
L 9.421875 64.59375 
z
" id="DejaVuSans-69"/>
      <path d="M 52 44.1875 
Q 55.375 50.25 60.0625 53.125 
Q 64.75 56 71.09375 56 
Q 79.640625 56 84.28125 50.015625 
Q 88.921875 44.046875 88.921875 33.015625 
L 88.921875 0 
L 79.890625 0 
L 79.890625 32.71875 
Q 79.890625 40.578125 77.09375 44.375 
Q 74.3125 48.1875 68.609375 48.1875 
Q 61.625 48.1875 57.5625 43.546875 
Q 53.515625 38.921875 53.515625 30.90625 
L 53.515625 0 
L 44.484375 0 
L 44.484375 32.71875 
Q 44.484375 40.625 41.703125 44.40625 
Q 38.921875 48.1875 33.109375 48.1875 
Q 26.21875 48.1875 22.15625 43.53125 
Q 18.109375 38.875 18.109375 30.90625 
L 18.109375 0 
L 9.078125 0 
L 9.078125 54.6875 
L 18.109375 54.6875 
L 18.109375 46.1875 
Q 21.1875 51.21875 25.484375 53.609375 
Q 29.78125 56 35.6875 56 
Q 41.65625 56 45.828125 52.96875 
Q 50 49.953125 52 44.1875 
" id="DejaVuSans-6d"/>
      <path d="M 56.203125 29.59375 
L 56.203125 25.203125 
L 14.890625 25.203125 
Q 15.484375 15.921875 20.484375 11.0625 
Q 25.484375 6.203125 34.421875 6.203125 
Q 39.59375 6.203125 44.453125 7.46875 
Q 49.3125 8.734375 54.109375 11.28125 
L 54.109375 2.78125 
Q 49.265625 0.734375 44.1875 -0.34375 
Q 39.109375 -1.421875 33.890625 -1.421875 
Q 20.796875 -1.421875 13.15625 6.1875 
Q 5.515625 13.8125 5.515625 26.8125 
Q 5.515625 40.234375 12.765625 48.109375 
Q 20.015625 56 32.328125 56 
Q 43.359375 56 49.78125 48.890625 
Q 56.203125 41.796875 56.203125 29.59375 
M 47.21875 32.234375 
Q 47.125 39.59375 43.09375 43.984375 
Q 39.0625 48.390625 32.421875 48.390625 
Q 24.90625 48.390625 20.390625 44.140625 
Q 15.875 39.890625 15.1875 32.171875 
z
" id="DejaVuSans-65"/>
      <path id="DejaVuSans-20"/>
      <path d="M 31 75.875 
Q 24.46875 64.65625 21.28125 53.65625 
Q 18.109375 42.671875 18.109375 31.390625 
Q 18.109375 20.125 21.3125 9.0625 
Q 24.515625 -2 31 -13.1875 
L 23.1875 -13.1875 
Q 15.875 -1.703125 12.234375 9.375 
Q 8.59375 20.453125 8.59375 31.390625 
Q 8.59375 42.28125 12.203125 53.3125 
Q 15.828125 64.359375 23.1875 75.875 
z
" id="DejaVuSans-28"/>
      <path d="M 44.28125 53.078125 
L 44.28125 44.578125 
Q 40.484375 46.53125 36.375 47.5 
Q 32.28125 48.484375 27.875 48.484375 
Q 21.1875 48.484375 17.84375 46.4375 
Q 14.5 44.390625 14.5 40.28125 
Q 14.5 37.15625 16.890625 35.375 
Q 19.28125 33.59375 26.515625 31.984375 
L 29.59375 31.296875 
Q 39.15625 29.25 43.1875 25.515625 
Q 47.21875 21.78125 47.21875 15.09375 
Q 47.21875 7.46875 41.1875 3.015625 
Q 35.15625 -1.421875 24.609375 -1.421875 
Q 20.21875 -1.421875 15.453125 -0.5625 
Q 10.6875 0.296875 5.421875 2 
L 5.421875 11.28125 
Q 10.40625 8.6875 15.234375 7.390625 
Q 20.0625 6.109375 24.8125 6.109375 
Q 31.15625 6.109375 34.5625 8.28125 
Q 37.984375 10.453125 37.984375 14.40625 
Q 37.984375 18.0625 35.515625 20.015625 
Q 33.0625 21.96875 24.703125 23.78125 
L 21.578125 24.515625 
Q 13.234375 26.265625 9.515625 29.90625 
Q 5.8125 33.546875 5.8125 39.890625 
Q 5.8125 47.609375 11.28125 51.796875 
Q 16.75 56 26.8125 56 
Q 31.78125 56 36.171875 55.265625 
Q 40.578125 54.546875 44.28125 53.078125 
" id="DejaVuSans-73"/>
      <path d="M 8.015625 75.875 
L 15.828125 75.875 
Q 23.140625 64.359375 26.78125 53.3125 
Q 30.421875 42.28125 30.421875 31.390625 
Q 30.421875 20.453125 26.78125 9.375 
Q 23.140625 -1.703125 15.828125 -13.1875 
L 8.015625 -13.1875 
Q 14.5 -2 17.703125 9.0625 
Q 20.90625 20.125 20.90625 31.390625 
Q 20.90625 42.671875 17.703125 53.65625 
Q 14.5 64.65625 8.015625 75.875 
" id="DejaVuSans-29"/>
     </defs>
     <g transform="translate(358.429688 134.905974)scale(0.1 -0.1)">
      <use xlink:href="#DejaVuSans-54"/>
      <use x="61.037109" xlink:href="#DejaVuSans-69"/>
      <use x="88.820312" xlink:href="#DejaVuSans-6d"/>
      <use x="186.232422" xlink:href="#DejaVuSans-65"/>
      <use x="247.755859" xlink:href="#DejaVuSans-20"/>
      <use x="279.542969" xlink:href="#DejaVuSans-28"/>
      <use x="318.556641" xlink:href="#DejaVuSans-6d"/>
      <use x="415.96875" xlink:href="#DejaVuSans-73"/>
      <use x="468.068359" xlink:href="#DejaVuSans-29"/>
     </g>
    </g>
   </g>
   <g id="matplotlib.axis_2">
    <g id="ytick_1">
     <g id="line2d_10">
      <defs>
       <path d="M 0 0 
L -3.5 0 
" id="m20074c3945" style="stroke:#000000;stroke-width:0.8;"/>
      </defs>
      <g>
       <use style="stroke:#000000;stroke-width:0.8;" x="48.982813" xlink:href="#m20074c3945" y="86.036522"/>
      </g>
     </g>
     <g id="text_11">
      <!-- −20 -->
      <defs>
       <path d="M 10.59375 35.5 
L 73.1875 35.5 
L 73.1875 27.203125 
L 10.59375 27.203125 
z
" id="DejaVuSans-2212"/>
      </defs>
      <g transform="translate(20.878125 89.835741)scale(0.1 -0.1)">
       <use xlink:href="#DejaVuSans-2212"/>
       <use x="83.789062" xlink:href="#DejaVuSans-32"/>
       <use x="147.412109" xlink:href="#DejaVuSans-30"/>
      </g>
     </g>
    </g>
    <g id="ytick_2">
     <g id="line2d_11">
      <g>
       <use style="stroke:#000000;stroke-width:0.8;" x="48.982813" xlink:href="#m20074c3945" y="55.901913"/>
      </g>
     </g>
     <g id="text_12">
      <!-- −10 -->
      <g transform="translate(20.878125 59.701132)scale(0.1 -0.1)">
       <use xlink:href="#DejaVuSans-2212"/>
       <use x="83.789062" xlink:href="#DejaVuSans-31"/>
       <use x="147.412109" xlink:href="#DejaVuSans-30"/>
      </g>
     </g>
    </g>
    <g id="ytick_3">
     <g id="line2d_12">
      <g>
       <use style="stroke:#000000;stroke-width:0.8;" x="48.982813" xlink:href="#m20074c3945" y="25.767304"/>
      </g>
     </g>
     <g id="text_13">
      <!-- 0 -->
      <g transform="translate(35.620312 29.566523)scale(0.1 -0.1)">
       <use xlink:href="#DejaVuSans-30"/>
      </g>
     </g>
    </g>
    <g id="text_14">
     <!-- $\ln(\lambda)$ -->
     <defs>
      <path d="M 9.421875 75.984375 
L 18.40625 75.984375 
L 18.40625 0 
L 9.421875 0 
z
" id="DejaVuSans-6c"/>
      <path d="M 54.890625 33.015625 
L 54.890625 0 
L 45.90625 0 
L 45.90625 32.71875 
Q 45.90625 40.484375 42.875 44.328125 
Q 39.84375 48.1875 33.796875 48.1875 
Q 26.515625 48.1875 22.3125 43.546875 
Q 18.109375 38.921875 18.109375 30.90625 
L 18.109375 0 
L 9.078125 0 
L 9.078125 54.6875 
L 18.109375 54.6875 
L 18.109375 46.1875 
Q 21.34375 51.125 25.703125 53.5625 
Q 30.078125 56 35.796875 56 
Q 45.21875 56 50.046875 50.171875 
Q 54.890625 44.34375 54.890625 33.015625 
" id="DejaVuSans-6e"/>
      <path d="M 36.71875 67.4375 
L 48.828125 0 
L 39.3125 0 
L 31.84375 40.4375 
L 5.125 0 
L -4.390625 0 
L 29.734375 52.4375 
L 28.03125 62.109375 
Q 26.953125 68.265625 21.734375 68.265625 
L 17.046875 68.265625 
L 18.5 75.984375 
L 24.21875 75.875 
Q 35.203125 75.734375 36.71875 67.4375 
" id="DejaVuSans-Oblique-3bb"/>
     </defs>
     <g transform="translate(14.798438 70.114706)rotate(-90)scale(0.1 -0.1)">
      <use transform="translate(0 0.015625)" xlink:href="#DejaVuSans-6c"/>
      <use transform="translate(27.783203 0.015625)" xlink:href="#DejaVuSans-6e"/>
      <use transform="translate(91.162109 0.015625)" xlink:href="#DejaVuSans-28"/>
      <use transform="translate(130.175781 0.015625)" xlink:href="#DejaVuSans-Oblique-3bb"/>
      <use transform="translate(189.355469 0.015625)" xlink:href="#DejaVuSans-29"/>
     </g>
    </g>
   </g>
   <g id="line2d_13">
    <path clip-path="url(#pdf708b6be8)" d="M 48.982813 27.728155 
L 50.656813 49.390263 
L 52.330813 49.565395 
L 54.004812 47.370362 
L 55.678812 44.209949 
L 57.352812 43.395432 
L 59.026813 42.77843 
L 60.700813 42.536862 
L 62.374813 42.574464 
L 65.722813 42.850301 
L 69.070813 42.876929 
L 77.440813 42.663893 
L 99.202813 42.843426 
L 114.268812 43.238455 
L 129.334812 43.851007 
L 147.748813 44.59487 
L 157.792813 44.729428 
L 167.836813 44.597416 
L 181.228813 44.139683 
L 201.316812 43.446742 
L 216.382812 43.160897 
L 233.122813 43.056863 
L 251.536813 43.154451 
L 256.558813 43.215003 
L 261.580813 42.78226 
L 263.254813 42.917808 
L 264.928813 43.520072 
L 268.276813 45.451577 
L 269.950813 45.945482 
L 271.624813 45.838399 
L 276.646813 44.59488 
L 279.994813 43.627755 
L 283.342813 42.296882 
L 285.016813 42.866204 
L 286.690813 44.055422 
L 288.364813 44.177279 
L 290.038813 28.515076 
L 291.712813 48.710437 
L 293.386813 46.015304 
L 295.060813 42.831896 
L 296.734813 41.239227 
L 298.408813 41.912601 
L 300.082813 28.756448 
L 301.756813 48.586769 
L 303.430813 46.07608 
L 305.104813 42.642867 
L 306.778813 41.920954 
L 308.452813 28.392412 
L 310.126813 48.663043 
L 311.800813 45.158247 
L 313.474813 42.120216 
L 315.148813 41.440385 
L 316.822813 41.547751 
L 318.496813 41.99149 
L 320.170813 43.113178 
L 321.844813 36.365408 
L 325.192813 48.745083 
L 326.866813 54.465601 
L 328.540813 59.293767 
L 330.214813 63.333816 
L 333.562813 70.625699 
L 335.236813 74.900043 
L 340.258813 89.291238 
L 341.932813 93.009593 
L 343.606813 95.545062 
L 345.280813 96.479331 
L 346.954813 95.955283 
L 348.628813 94.046022 
L 350.302813 90.964428 
L 351.976813 87.418188 
L 355.324813 79.894347 
L 356.998813 76.389898 
L 358.672813 72.606806 
L 365.368813 56.339691 
L 368.716813 49.053638 
L 370.390813 45.206814 
L 372.064813 41.986031 
L 375.412813 43.92014 
L 377.086813 43.458305 
L 378.760813 42.847886 
L 382.108813 42.173359 
L 383.782813 41.943498 
L 385.456813 41.942526 
L 387.130813 42.353353 
L 388.804813 42.972608 
L 390.478813 43.253752 
L 392.152813 42.615922 
L 393.826813 41.477721 
L 395.500813 42.497094 
L 397.174813 43.893038 
L 400.522813 44.488037 
L 402.196813 27.986926 
L 403.870813 51.271989 
L 405.544813 44.661976 
L 407.218813 44.950399 
L 408.892813 28.028276 
L 410.566813 48.968191 
L 412.240813 44.102547 
L 413.914813 44.794584 
L 415.588813 27.941808 
L 417.262813 49.005379 
L 418.936813 43.898072 
L 420.610813 43.86892 
L 422.284813 28.112113 
L 423.958813 47.99676 
L 425.632813 44.092346 
L 427.306813 41.161792 
L 428.980813 41.344966 
L 430.654813 28.430531 
L 432.328813 47.634603 
L 434.002813 45.064842 
L 435.676813 42.055154 
L 437.350813 41.600017 
L 439.024813 28.691773 
L 440.698813 47.991669 
L 442.372813 46.469769 
L 444.046813 44.02569 
L 445.720813 42.647957 
L 447.394813 42.788038 
L 449.068813 34.166555 
L 450.742813 43.52488 
L 452.416813 49.144116 
L 454.090813 54.327771 
L 455.764813 58.919383 
L 457.438813 62.996586 
L 459.112813 66.09303 
L 460.786813 67.86861 
L 462.460813 68.4657 
L 464.134813 67.97102 
L 465.808813 67.025333 
L 467.482813 65.908059 
L 470.830813 63.066748 
L 474.178813 59.928142 
L 477.526813 57.271977 
L 479.200813 55.973556 
L 480.874813 54.932192 
L 482.548813 54.221481 
L 484.222813 53.965736 
L 487.570813 53.846965 
L 489.244813 53.25772 
L 490.918813 52.252323 
L 492.592813 50.702054 
L 494.266813 48.930763 
L 495.940813 46.958296 
L 499.288813 42.653955 
L 500.962813 41.64479 
L 504.310813 42.496917 
L 505.984813 42.423609 
L 509.332813 41.900765 
L 511.006813 41.860254 
L 516.028813 42.169268 
L 517.702813 42.737545 
L 519.376813 44.447755 
L 521.050813 47.498546 
L 522.724812 51.353894 
L 524.398813 54.89178 
L 526.072813 57.482976 
L 527.746813 58.964937 
L 531.094812 61.232372 
L 532.768813 62.800781 
L 534.442813 64.537222 
L 536.116813 65.8792 
L 537.790813 66.068208 
L 539.464812 64.745046 
L 541.138813 61.785984 
L 542.812813 57.617076 
L 546.160813 48.584989 
L 547.834812 45.604416 
L 549.508813 44.441844 
L 551.182813 45.04933 
L 554.530813 48.494224 
L 556.204813 49.593441 
L 557.878813 49.615664 
L 559.552813 48.690303 
L 561.226813 47.233124 
L 562.900813 45.562326 
L 564.574813 43.546705 
L 566.248813 41.746285 
L 567.922813 44.421619 
L 569.596813 28.442269 
L 571.270813 58.798075 
L 572.944813 49.591616 
L 574.618813 43.459047 
L 576.292813 28.165839 
L 577.966813 48.887585 
L 579.640813 44.142672 
L 581.314813 43.481448 
L 582.988813 28.007333 
L 584.662813 48.291661 
L 586.336813 44.27514 
L 588.010813 41.551923 
L 589.684813 41.551013 
L 591.358813 28.608657 
L 593.032813 46.975802 
L 594.706813 46.065753 
L 596.380813 44.392022 
L 598.054813 43.477135 
L 599.728813 43.517254 
L 601.402813 44.309193 
L 603.076813 45.58202 
L 611.446813 53.134601 
L 614.794813 55.717015 
L 621.490813 60.523489 
L 624.838813 62.637969 
L 626.512813 63.524393 
L 628.186813 64.246276 
L 629.860813 64.774439 
L 631.534813 65.090119 
L 633.208813 65.182556 
L 634.882813 65.047683 
L 636.556813 64.687045 
L 638.230813 64.110129 
L 639.904813 63.334176 
L 641.578813 62.380626 
L 644.926813 60.053164 
L 648.274813 57.367148 
L 656.644813 50.46163 
L 659.992813 48.056361 
L 663.340813 46.059821 
L 665.014813 45.247367 
L 666.688813 44.571317 
L 668.362813 44.036879 
L 670.036813 43.641356 
L 673.384813 43.217984 
L 676.732813 43.142698 
L 681.754813 43.325774 
L 686.776813 43.708072 
L 693.472813 44.466772 
L 716.908813 47.57147 
L 716.908813 47.57147 
" style="fill:none;stroke:#44525c;stroke-linecap:square;"/>
   </g>
   <g id="line2d_14">
    <path clip-path="url(#pdf708b6be8)" d="M 48.982813 40.60945 
L 50.656813 89.253899 
L 52.330813 86.673054 
L 54.004812 72.757934 
L 55.678812 56.905204 
L 57.352812 45.663665 
L 59.026813 40.17199 
L 60.700813 39.651591 
L 62.374813 40.026599 
L 64.048812 40.071787 
L 65.722813 39.851986 
L 67.396813 39.438857 
L 70.744812 38.247631 
L 77.440813 35.457135 
L 80.788813 34.376825 
L 82.462813 34.133159 
L 84.136813 34.247467 
L 85.810812 34.675411 
L 87.484813 35.371119 
L 89.158813 36.289154 
L 90.832813 37.3859 
L 94.180813 39.955296 
L 100.876812 45.525456 
L 102.550813 46.66061 
L 104.224813 47.629434 
L 105.898813 48.432459 
L 107.572812 49.07253 
L 109.246813 49.554364 
L 110.920813 49.884164 
L 112.594813 50.069279 
L 114.268812 50.11792 
L 115.942813 50.038908 
L 119.290813 49.535046 
L 122.638813 48.633323 
L 136.030812 44.124344 
L 141.052813 42.817842 
L 146.074813 41.784385 
L 151.096812 41.028921 
L 156.118813 40.543185 
L 161.140813 40.309823 
L 174.532813 40.204779 
L 199.642813 40.206692 
L 258.232813 40.338548 
L 261.580813 39.427917 
L 263.254813 39.263568 
L 264.928813 39.988368 
L 268.276813 42.929059 
L 269.950813 43.873862 
L 271.624813 44.062932 
L 273.298813 43.809144 
L 276.646813 42.913962 
L 278.320813 42.285742 
L 279.994813 41.525882 
L 281.668813 40.368725 
L 283.342813 38.407892 
L 285.016813 35.472779 
L 288.364813 28.321316 
L 290.038813 25.69922 
L 291.712813 73.140204 
L 293.386813 70.62773 
L 295.060813 57.640483 
L 296.734813 42.838889 
L 298.408813 32.13336 
L 300.082813 26.827056 
L 301.756813 74.887604 
L 303.430813 72.565413 
L 305.104813 58.358858 
L 306.778813 41.707267 
L 308.452813 29.097777 
L 310.126813 70.782094 
L 311.800813 66.483473 
L 315.148813 38.303735 
L 316.822813 29.471315 
L 318.496813 27.13607 
L 320.170813 30.25012 
L 321.844813 34.783522 
L 323.518813 88.174081 
L 325.192813 90.399612 
L 326.866813 81.000982 
L 328.540813 68.986734 
L 330.214813 60.974418 
L 331.888813 58.548659 
L 333.562813 61.508906 
L 335.236813 66.322532 
L 338.584813 76.944287 
L 340.258813 81.85965 
L 341.932813 85.879203 
L 343.606813 88.816566 
L 345.280813 90.266396 
L 346.954813 90.394031 
L 348.628813 89.287573 
L 350.302813 87.152139 
L 351.976813 84.586265 
L 353.650813 81.696793 
L 355.324813 79.224505 
L 358.672813 75.009317 
L 360.346813 72.565355 
L 363.694813 67.327247 
L 367.042813 62.901652 
L 368.716813 60.433874 
L 370.390813 57.616221 
L 375.412813 48.224004 
L 377.086813 45.779529 
L 378.760813 44.152793 
L 380.434813 43.281751 
L 382.108813 43.254704 
L 383.782813 44.041219 
L 385.456813 45.5636 
L 388.804813 49.737751 
L 390.478813 50.902813 
L 392.152813 50.463521 
L 393.826813 48.199184 
L 395.500813 44.60924 
L 397.174813 40.3951 
L 400.522813 30.874087 
L 402.196813 25.696095 
L 403.870813 69.158035 
L 405.544813 62.256879 
L 408.892813 27.252865 
L 410.566813 63.477152 
L 412.240813 54.307613 
L 415.588813 22.718912 
L 417.262813 59.944065 
L 418.936813 52.122316 
L 422.284813 24.661352 
L 423.958813 64.434293 
L 425.632813 59.052745 
L 427.306813 47.352051 
L 428.980813 34.302808 
L 430.654813 24.97979 
L 432.328813 69.054806 
L 434.002813 65.929256 
L 435.676813 52.025566 
L 437.350813 35.978894 
L 439.024813 24.74844 
L 440.698813 68.05805 
L 442.372813 65.385644 
L 444.046813 52.545555 
L 445.720813 38.076885 
L 447.394813 28.902458 
L 449.068813 26.643198 
L 450.742813 79.088342 
L 452.416813 81.858604 
L 454.090813 73.048089 
L 455.764813 61.922131 
L 457.438813 54.956679 
L 459.112813 52.977906 
L 460.786813 54.700339 
L 462.460813 56.133029 
L 464.134813 56.303513 
L 465.808813 56.009805 
L 467.482813 55.463163 
L 469.156813 54.604784 
L 472.504813 52.61442 
L 474.178813 51.816264 
L 475.852813 51.341969 
L 479.200813 50.900412 
L 480.874813 51.118623 
L 482.548813 51.816854 
L 484.222813 53.171339 
L 487.570813 56.74639 
L 489.244813 58.140342 
L 490.918813 59.013998 
L 492.592813 59.200095 
L 494.266813 59.028552 
L 495.940813 58.471774 
L 497.614813 57.447831 
L 502.636813 52.926614 
L 504.310813 51.983147 
L 505.984813 51.374516 
L 507.658813 50.891344 
L 509.332813 50.176938 
L 514.354813 47.317521 
L 516.028813 47.3336 
L 517.702813 48.567627 
L 519.376813 51.280416 
L 521.050813 55.130997 
L 522.724812 59.375777 
L 524.398813 62.927565 
L 526.072813 65.304412 
L 527.746813 66.492582 
L 529.420813 67.247773 
L 531.094812 68.137194 
L 532.768813 69.405003 
L 534.442813 70.849483 
L 536.116813 71.897682 
L 537.790813 71.764369 
L 539.464812 70.07088 
L 541.138813 66.68879 
L 542.812813 62.045296 
L 546.160813 51.903543 
L 547.834812 48.244412 
L 549.508813 46.331628 
L 551.182813 46.234824 
L 552.856813 47.315638 
L 554.530813 48.570713 
L 556.204813 49.184384 
L 557.878813 48.743733 
L 559.552813 47.37812 
L 561.226813 45.498938 
L 562.900813 43.403901 
L 564.574813 40.836991 
L 566.248813 37.3578 
L 567.922813 32.586043 
L 569.596813 26.892098 
L 571.270813 69.692298 
L 572.944813 61.81543 
L 576.292813 25.266704 
L 577.966813 61.240366 
L 579.640813 52.819617 
L 582.988813 24.546729 
L 584.662813 63.654273 
L 586.336813 57.396027 
L 589.684813 32.538884 
L 591.358813 24.619747 
L 593.032813 71.240871 
L 594.706813 71.415027 
L 596.380813 61.136076 
L 598.054813 48.56207 
L 599.728813 40.153768 
L 601.402813 36.972824 
L 603.076813 38.37305 
L 604.750813 40.392546 
L 606.424813 41.832459 
L 608.098813 42.773169 
L 613.120813 45.013832 
L 614.794813 45.841833 
L 616.468813 46.921126 
L 618.142813 48.369132 
L 621.490813 52.009007 
L 623.164813 53.973897 
L 624.838813 56.136824 
L 631.534813 65.619185 
L 633.208813 67.72714 
L 634.882813 69.526471 
L 636.556813 70.97589 
L 638.230813 72.068378 
L 639.904813 72.806047 
L 641.578813 73.182943 
L 643.252813 73.108204 
L 644.926813 72.591366 
L 646.600813 71.698881 
L 648.274813 70.513327 
L 649.948813 69.066931 
L 651.622813 67.389204 
L 654.970813 63.591693 
L 665.014813 51.626799 
L 668.362813 48.289436 
L 670.036813 46.882185 
L 671.710813 45.66362 
L 673.384813 44.630815 
L 675.058813 43.780459 
L 676.732813 43.107478 
L 678.406813 42.60418 
L 680.080813 42.261493 
L 681.754813 42.069177 
L 683.428813 42.016623 
L 686.776813 42.24116 
L 690.124813 42.816637 
L 695.146813 44.077607 
L 705.190813 46.894819 
L 708.538813 47.66814 
L 711.886813 48.282976 
L 716.908813 48.927869 
L 716.908813 48.927869 
" style="fill:none;stroke:#eb7a59;stroke-linecap:square;"/>
   </g>
   <g id="line2d_15">
    <path clip-path="url(#pdf708b6be8)" d="M 48.982813 106.629412 
L 48.982813 10.7 
" style="fill:none;stroke:#eea300;stroke-linecap:square;stroke-width:0.4;"/>
   </g>
   <g id="line2d_16">
    <path clip-path="url(#pdf708b6be8)" d="M 290.038813 106.629412 
L 290.038813 10.7 
" style="fill:none;stroke:#eea300;stroke-linecap:square;stroke-width:0.4;"/>
   </g>
   <g id="line2d_17">
    <path clip-path="url(#pdf708b6be8)" d="M 300.082813 106.629412 
L 300.082813 10.7 
" style="fill:none;stroke:#eea300;stroke-linecap:square;stroke-width:0.4;"/>
   </g>
   <g id="line2d_18">
    <path clip-path="url(#pdf708b6be8)" d="M 308.452813 106.629412 
L 308.452813 10.7 
" style="fill:none;stroke:#eea300;stroke-linecap:square;stroke-width:0.4;"/>
   </g>
   <g id="line2d_19">
    <path clip-path="url(#pdf708b6be8)" d="M 321.844813 106.629412 
L 321.844813 10.7 
" style="fill:none;stroke:#eea300;stroke-linecap:square;stroke-width:0.4;"/>
   </g>
   <g id="line2d_20">
    <path clip-path="url(#pdf708b6be8)" d="M 402.196813 106.629412 
L 402.196813 10.7 
" style="fill:none;stroke:#eea300;stroke-linecap:square;stroke-width:0.4;"/>
   </g>
   <g id="line2d_21">
    <path clip-path="url(#pdf708b6be8)" d="M 408.892813 106.629412 
L 408.892813 10.7 
" style="fill:none;stroke:#eea300;stroke-linecap:square;stroke-width:0.4;"/>
   </g>
   <g id="line2d_22">
    <path clip-path="url(#pdf708b6be8)" d="M 415.588813 106.629412 
L 415.588813 10.7 
" style="fill:none;stroke:#eea300;stroke-linecap:square;stroke-width:0.4;"/>
   </g>
   <g id="line2d_23">
    <path clip-path="url(#pdf708b6be8)" d="M 422.284813 106.629412 
L 422.284813 10.7 
" style="fill:none;stroke:#eea300;stroke-linecap:square;stroke-width:0.4;"/>
   </g>
   <g id="line2d_24">
    <path clip-path="url(#pdf708b6be8)" d="M 430.654813 106.629412 
L 430.654813 10.7 
" style="fill:none;stroke:#eea300;stroke-linecap:square;stroke-width:0.4;"/>
   </g>
   <g id="line2d_25">
    <path clip-path="url(#pdf708b6be8)" d="M 439.024813 106.629412 
L 439.024813 10.7 
" style="fill:none;stroke:#eea300;stroke-linecap:square;stroke-width:0.4;"/>
   </g>
   <g id="line2d_26">
    <path clip-path="url(#pdf708b6be8)" d="M 449.068813 106.629412 
L 449.068813 10.7 
" style="fill:none;stroke:#eea300;stroke-linecap:square;stroke-width:0.4;"/>
   </g>
   <g id="line2d_27">
    <path clip-path="url(#pdf708b6be8)" d="M 569.596813 106.629412 
L 569.596813 10.7 
" style="fill:none;stroke:#eea300;stroke-linecap:square;stroke-width:0.4;"/>
   </g>
   <g id="line2d_28">
    <path clip-path="url(#pdf708b6be8)" d="M 576.292813 106.629412 
L 576.292813 10.7 
" style="fill:none;stroke:#eea300;stroke-linecap:square;stroke-width:0.4;"/>
   </g>
   <g id="line2d_29">
    <path clip-path="url(#pdf708b6be8)" d="M 582.988813 106.629412 
L 582.988813 10.7 
" style="fill:none;stroke:#eea300;stroke-linecap:square;stroke-width:0.4;"/>
   </g>
   <g id="line2d_30">
    <path clip-path="url(#pdf708b6be8)" d="M 591.358813 106.629412 
L 591.358813 10.7 
" style="fill:none;stroke:#eea300;stroke-linecap:square;stroke-width:0.4;"/>
   </g>
   <g id="patch_3">
    <path d="M 48.982813 106.629412 
L 48.982813 10.7 
" style="fill:none;stroke:#000000;stroke-linecap:square;stroke-linejoin:miter;stroke-width:0.8;"/>
   </g>
   <g id="legend_1">
    <g id="patch_4">
     <path d="M 55.982813 101.629412 
L 147.717187 101.629412 
Q 149.717187 101.629412 149.717187 99.629412 
L 149.717187 71.273162 
Q 149.717187 69.273162 147.717187 69.273162 
L 55.982813 69.273162 
Q 53.982813 69.273162 53.982813 71.273162 
L 53.982813 99.629412 
Q 53.982813 101.629412 55.982813 101.629412 
z
" style="fill:#ffffff;opacity:0.8;stroke:#cccccc;stroke-linejoin:miter;"/>
    </g>
    <g id="line2d_31">
     <path d="M 57.982813 77.371599 
L 77.982812 77.371599 
" style="fill:none;stroke:#44525c;stroke-linecap:square;"/>
    </g>
    <g id="line2d_32"/>
    <g id="text_15">
     <!-- MC Filtering -->
     <defs>
      <path d="M 9.8125 72.90625 
L 24.515625 72.90625 
L 43.109375 23.296875 
L 61.8125 72.90625 
L 76.515625 72.90625 
L 76.515625 0 
L 66.890625 0 
L 66.890625 64.015625 
L 48.09375 14.015625 
L 38.1875 14.015625 
L 19.390625 64.015625 
L 19.390625 0 
L 9.8125 0 
z
" id="DejaVuSans-4d"/>
      <path d="M 64.40625 67.28125 
L 64.40625 56.890625 
Q 59.421875 61.53125 53.78125 63.8125 
Q 48.140625 66.109375 41.796875 66.109375 
Q 29.296875 66.109375 22.65625 58.46875 
Q 16.015625 50.828125 16.015625 36.375 
Q 16.015625 21.96875 22.65625 14.328125 
Q 29.296875 6.6875 41.796875 6.6875 
Q 48.140625 6.6875 53.78125 8.984375 
Q 59.421875 11.28125 64.40625 15.921875 
L 64.40625 5.609375 
Q 59.234375 2.09375 53.4375 0.328125 
Q 47.65625 -1.421875 41.21875 -1.421875 
Q 24.65625 -1.421875 15.125 8.703125 
Q 5.609375 18.84375 5.609375 36.375 
Q 5.609375 53.953125 15.125 64.078125 
Q 24.65625 74.21875 41.21875 74.21875 
Q 47.75 74.21875 53.53125 72.484375 
Q 59.328125 70.75 64.40625 67.28125 
" id="DejaVuSans-43"/>
      <path d="M 9.8125 72.90625 
L 51.703125 72.90625 
L 51.703125 64.59375 
L 19.671875 64.59375 
L 19.671875 43.109375 
L 48.578125 43.109375 
L 48.578125 34.8125 
L 19.671875 34.8125 
L 19.671875 0 
L 9.8125 0 
z
" id="DejaVuSans-46"/>
      <path d="M 18.3125 70.21875 
L 18.3125 54.6875 
L 36.8125 54.6875 
L 36.8125 47.703125 
L 18.3125 47.703125 
L 18.3125 18.015625 
Q 18.3125 11.328125 20.140625 9.421875 
Q 21.96875 7.515625 27.59375 7.515625 
L 36.8125 7.515625 
L 36.8125 0 
L 27.59375 0 
Q 17.1875 0 13.234375 3.875 
Q 9.28125 7.765625 9.28125 18.015625 
L 9.28125 47.703125 
L 2.6875 47.703125 
L 2.6875 54.6875 
L 9.28125 54.6875 
L 9.28125 70.21875 
z
" id="DejaVuSans-74"/>
      <path d="M 41.109375 46.296875 
Q 39.59375 47.171875 37.8125 47.578125 
Q 36.03125 48 33.890625 48 
Q 26.265625 48 22.1875 43.046875 
Q 18.109375 38.09375 18.109375 28.8125 
L 18.109375 0 
L 9.078125 0 
L 9.078125 54.6875 
L 18.109375 54.6875 
L 18.109375 46.1875 
Q 20.953125 51.171875 25.484375 53.578125 
Q 30.03125 56 36.53125 56 
Q 37.453125 56 38.578125 55.875 
Q 39.703125 55.765625 41.0625 55.515625 
z
" id="DejaVuSans-72"/>
      <path d="M 45.40625 27.984375 
Q 45.40625 37.75 41.375 43.109375 
Q 37.359375 48.484375 30.078125 48.484375 
Q 22.859375 48.484375 18.828125 43.109375 
Q 14.796875 37.75 14.796875 27.984375 
Q 14.796875 18.265625 18.828125 12.890625 
Q 22.859375 7.515625 30.078125 7.515625 
Q 37.359375 7.515625 41.375 12.890625 
Q 45.40625 18.265625 45.40625 27.984375 
M 54.390625 6.78125 
Q 54.390625 -7.171875 48.1875 -13.984375 
Q 42 -20.796875 29.203125 -20.796875 
Q 24.46875 -20.796875 20.265625 -20.09375 
Q 16.0625 -19.390625 12.109375 -17.921875 
L 12.109375 -9.1875 
Q 16.0625 -11.328125 19.921875 -12.34375 
Q 23.78125 -13.375 27.78125 -13.375 
Q 36.625 -13.375 41.015625 -8.765625 
Q 45.40625 -4.15625 45.40625 5.171875 
L 45.40625 9.625 
Q 42.625 4.78125 38.28125 2.390625 
Q 33.9375 0 27.875 0 
Q 17.828125 0 11.671875 7.65625 
Q 5.515625 15.328125 5.515625 27.984375 
Q 5.515625 40.671875 11.671875 48.328125 
Q 17.828125 56 27.875 56 
Q 33.9375 56 38.28125 53.609375 
Q 42.625 51.21875 45.40625 46.390625 
L 45.40625 54.6875 
L 54.390625 54.6875 
z
" id="DejaVuSans-67"/>
     </defs>
     <g transform="translate(85.982812 80.871599)scale(0.1 -0.1)">
      <use xlink:href="#DejaVuSans-4d"/>
      <use x="86.279297" xlink:href="#DejaVuSans-43"/>
      <use x="156.103516" xlink:href="#DejaVuSans-20"/>
      <use x="187.890625" xlink:href="#DejaVuSans-46"/>
      <use x="245.300781" xlink:href="#DejaVuSans-69"/>
      <use x="273.083984" xlink:href="#DejaVuSans-6c"/>
      <use x="300.867188" xlink:href="#DejaVuSans-74"/>
      <use x="340.076172" xlink:href="#DejaVuSans-65"/>
      <use x="401.599609" xlink:href="#DejaVuSans-72"/>
      <use x="442.712891" xlink:href="#DejaVuSans-69"/>
      <use x="470.496094" xlink:href="#DejaVuSans-6e"/>
      <use x="533.875" xlink:href="#DejaVuSans-67"/>
     </g>
    </g>
    <g id="line2d_33">
     <path d="M 57.982813 92.049724 
L 77.982812 92.049724 
" style="fill:none;stroke:#eb7a59;stroke-linecap:square;"/>
    </g>
    <g id="line2d_34"/>
    <g id="text_16">
     <!-- GLM log-λ -->
     <defs>
      <path d="M 59.515625 10.40625 
L 59.515625 29.984375 
L 43.40625 29.984375 
L 43.40625 38.09375 
L 69.28125 38.09375 
L 69.28125 6.78125 
Q 63.578125 2.734375 56.6875 0.65625 
Q 49.8125 -1.421875 42 -1.421875 
Q 24.90625 -1.421875 15.25 8.5625 
Q 5.609375 18.5625 5.609375 36.375 
Q 5.609375 54.25 15.25 64.234375 
Q 24.90625 74.21875 42 74.21875 
Q 49.125 74.21875 55.546875 72.453125 
Q 61.96875 70.703125 67.390625 67.28125 
L 67.390625 56.78125 
Q 61.921875 61.421875 55.765625 63.765625 
Q 49.609375 66.109375 42.828125 66.109375 
Q 29.4375 66.109375 22.71875 58.640625 
Q 16.015625 51.171875 16.015625 36.375 
Q 16.015625 21.625 22.71875 14.15625 
Q 29.4375 6.6875 42.828125 6.6875 
Q 48.046875 6.6875 52.140625 7.59375 
Q 56.25 8.5 59.515625 10.40625 
" id="DejaVuSans-47"/>
      <path d="M 9.8125 72.90625 
L 19.671875 72.90625 
L 19.671875 8.296875 
L 55.171875 8.296875 
L 55.171875 0 
L 9.8125 0 
z
" id="DejaVuSans-4c"/>
      <path d="M 30.609375 48.390625 
Q 23.390625 48.390625 19.1875 42.75 
Q 14.984375 37.109375 14.984375 27.296875 
Q 14.984375 17.484375 19.15625 11.84375 
Q 23.34375 6.203125 30.609375 6.203125 
Q 37.796875 6.203125 41.984375 11.859375 
Q 46.1875 17.53125 46.1875 27.296875 
Q 46.1875 37.015625 41.984375 42.703125 
Q 37.796875 48.390625 30.609375 48.390625 
M 30.609375 56 
Q 42.328125 56 49.015625 48.375 
Q 55.71875 40.765625 55.71875 27.296875 
Q 55.71875 13.875 49.015625 6.21875 
Q 42.328125 -1.421875 30.609375 -1.421875 
Q 18.84375 -1.421875 12.171875 6.21875 
Q 5.515625 13.875 5.515625 27.296875 
Q 5.515625 40.765625 12.171875 48.375 
Q 18.84375 56 30.609375 56 
" id="DejaVuSans-6f"/>
      <path d="M 4.890625 31.390625 
L 31.203125 31.390625 
L 31.203125 23.390625 
L 4.890625 23.390625 
z
" id="DejaVuSans-2d"/>
      <path d="M 30.953125 67.4375 
L 56.203125 0 
L 46.6875 0 
L 31.34375 40.4375 
L 12.5 0 
L 2.984375 0 
L 26.953125 52.4375 
L 23.34375 62.109375 
Q 21.046875 68.265625 15.828125 68.265625 
L 11.140625 68.265625 
L 11.140625 75.984375 
L 16.84375 75.875 
Q 27.875 75.734375 30.953125 67.4375 
" id="DejaVuSans-3bb"/>
     </defs>
     <g transform="translate(85.982812 95.549724)scale(0.1 -0.1)">
      <use xlink:href="#DejaVuSans-47"/>
      <use x="77.490234" xlink:href="#DejaVuSans-4c"/>
      <use x="133.203125" xlink:href="#DejaVuSans-4d"/>
      <use x="219.482422" xlink:href="#DejaVuSans-20"/>
      <use x="251.269531" xlink:href="#DejaVuSans-6c"/>
      <use x="279.052734" xlink:href="#DejaVuSans-6f"/>
      <use x="340.234375" xlink:href="#DejaVuSans-67"/>
      <use x="403.710938" xlink:href="#DejaVuSans-2d"/>
      <use x="439.794922" xlink:href="#DejaVuSans-3bb"/>
     </g>
    </g>
   </g>
  </g>
 </g>
 <defs>
  <clipPath id="pdf708b6be8">
   <rect height="95.929412" width="669.6" x="48.982813" y="10.7"/>
  </clipPath>
 </defs>
</svg>
